<svg width="16" height="16" viewBox="0 0 16 16" fill="none" xmlns="http://www.w3.org/2000/svg">
<path d="M6.10811 12.9775C6.32393 12.9775 6.50102 12.9001 6.6449 12.7562L10.8894 8.61133C11.0775 8.42318 11.1716 8.22949 11.1716 7.99154C11.1716 7.75358 11.083 7.55436 10.8894 7.37174L6.6449 3.22135C6.49548 3.07747 6.3184 3 6.10811 3C5.68201 3 5.33337 3.3431 5.33337 3.76921C5.33337 3.97949 5.42192 4.17871 5.57686 4.33366L9.33988 7.99154L5.57686 11.6439C5.42192 11.7988 5.33337 11.998 5.33337 12.2083C5.33337 12.6344 5.68201 12.9775 6.10811 12.9775Z" fill="#EBEBF5" fill-opacity="0.6"/>
</svg>
